#!OML:ASF I:\golf\golf\golf 2\Subject 1\2002-09-07\Subject1.ASF
:FULLY-SPECIFIED
:DEGREES
349
root -5.20785 18.0433 -3.32975 -166.473 1.64519 -173.879
lowerback -10.1071 10.1237 15.6873
upperback -12.7201 16.856 3.55883
thorax -5.8099 8.94007 -3.49669
lowerneck -12.0047 -15.2929 -0.0457971
upperneck 8.95905 -20.3216 -1.87473
head 4.39488 -10.1331 -1.98315
rclavicle -2.10712e-014 -9.38264e-014
rhumerus 102.276 25.5418 -52.4386
rradius 55.4698
rwrist -16.0466
rhand -40.1834 29.253
rfingers 7.12502
rthumb -13.1446 -0.312706
lclavicle -2.10712e-014 -9.38264e-014
lhumerus 62.1157 18.4078 50.7802
lradius 61.7236
lwrist 23.1596
lhand -16.764 15.5279
lfingers 7.12502
lthumb -170.537 225.295
rfemur 14.7205 -2.31548 21.8571
rtibia 13.5405
rfoot 32.9958 -25.0173
rtoes 19.6767
lfemur -28.3576 -19.3047 -10.2602
ltibia 26.2624
lfoot 32.2158 -43.0462
ltoes 53.7517
350
root -5.19615 18.0454 -3.32032 -166.51 1.96811 -173.963
lowerback -9.99656 10.0441 15.4937
upperback -12.6731 16.7212 3.57698
thorax -5.86838 8.86385 -3.42593
lowerneck -12.2326 -15.0726 0.156562
upperneck 9.08209 -20.05 -1.95103
head 4.44526 -9.99574 -2.03605
rclavicle 1.28812e-013 3.49861e-014
rhumerus 101.786 25.6259 -52.6161
rradius 54.6828
rwrist -16.7017
rhand -40.5151 28.624
rfingers 7.12502
rthumb -13.4643 -0.920811
lclavicle 1.28812e-013 3.49861e-014
lhumerus 61.9307 17.7711 50.6674
lradius 61.0247
lwrist 23.5751
lhand -16.3261 15.7808
lfingers 7.12502
lthumb -170.114 225.529
rfemur 14.4553 -2.19943 21.6967
rtibia 14.054
rfoot 33.0742 -24.5418
rtoes 18.9514
lfemur -28.1937 -19.1875 -10.3567
ltibia 26.0851
lfoot 31.8629 -43.4195
ltoes 53.3135
351
root -5.18507 18.0486 -3.31179 -166.544 2.30317 -174.05
lowerback -9.98666 9.99423 15.3377
upperback -12.573 16.5799 3.59059
thorax -5.80162 8.78859 -3.34212
lowerneck -12.3975 -14.8567 0.347696
upperneck 9.08016 -19.7805 -2.01072
head 4.45024 -9.85977 -2.07081
rclavicle 1.28415e-013 3.65764e-014
rhumerus 101.374 25.6539 -52.7267
rradius 53.88
rwrist -17.3635
rhand -40.7463 28.3924
rfingers 7.12502
rthumb -13.6871 -1.13751
lclavicle 1.28415e-013 3.65764e-014
lhumerus 61.7491 17.1094 50.5065
lradius 60.3595
lwrist 23.991
lhand -16.3872 16.0703
lfingers 7.12502
lthumb -170.173 225.821
rfemur 14.1833 -2.05918 21.5424
rtibia 14.5785
rfoot 33.2792 -23.8243
rtoes 17.6166
lfemur -28.0298 -19.1078 -10.4458
ltibia 25.8937
lfoot 30.8082 -44.2972
ltoes 52.2356
352
root -5.17384 18.0535 -3.30456 -166.618 2.63929 -174.097
lowerback -9.88946 9.97353 15.2639
upperback -12.5153 16.5051 3.5684
thorax -5.79563 8.73489 -3.34951
lowerneck -12.3977 -14.6992 0.44329
upperneck 9.01711 -19.5831 -2.0069
head 4.42534 -9.76037 -2.06491
rclavicle 4.96962e-014 2.54444e-014
rhumerus 100.894 25.6418 -52.8669
rradius 53.0727
rwrist -18.0469
rhand -40.8809 28.1107
rfingers 7.12502
rthumb -13.8169 -1.41047
lclavicle 4.96962e-014 2.54444e-014
lhumerus 61.741 16.3446 50.5113
lradius 59.5365
lwrist 24.1041
lhand -16.1834 16.2528
lfingers 7.12502
lthumb -169.977 225.994
rfemur 13.9862 -1.86045 21.4489
rtibia 15.0502
rfoot 33.3565 -23.3079
rtoes 16.5818
lfemur -27.8082 -19.0511 -10.4937
ltibia 25.7155
lfoot 30.3444 -44.3686
ltoes 51.7973
353
root -5.16299 18.0587 -3.29657 -166.714 2.93115 -174.14
lowerback -9.74032 9.94481 15.2008
upperback -12.4567 16.4241 3.53455
thorax -5.81093 8.67289 -3.38594
lowerneck -12.4747 -14.5261 0.517526
upperneck 8.97405 -19.3632 -1.97809
head 4.42387 -9.64758 -2.05569
rclavicle 1.69365e-013 1.03368e-013
rhumerus 100.406 25.6122 -52.9943
rradius 52.3242
rwrist -18.6979
rhand -40.8033 28.115
rfingers 7.12502
rthumb -13.742 -1.4112
lclavicle 1.69365e-013 1.03368e-013
lhumerus 61.8729 15.6083 50.7507
lradius 58.6682
lwrist 24.0361
lhand -15.9271 16.2599
lfingers 7.12502
lthumb -169.73 225.989
rfemur 13.8712 -1.62261 21.3913
rtibia 15.4011
rfoot 33.2752 -23.1477
rtoes 16.0794
lfemur -27.5896 -18.9672 -10.5516
ltibia 25.5807
lfoot 30.915 -43.4965
ltoes 52.3582
